<?xml version="1.0" standalone="no"?>
<!DOCTYPE svg PUBLIC "-//W3C//DTD SVG 20010904//EN"
 "http://www.w3.org/TR/2001/REC-SVG-20010904/DTD/svg10.dtd">
<svg version="1.0" xmlns="http://www.w3.org/2000/svg"
 width="310.000000pt" height="138.000000pt" viewBox="0 0 310.000000 138.000000"
 preserveAspectRatio="xMidYMid meet">

<g transform="translate(0.000000,138.000000) scale(0.100000,-0.100000)"
fill="#000000" stroke="none">
<path d="M0 690 l0 -690 1550 0 1550 0 0 690 0 690 -1550 0 -1550 0 0 -690z
m2473 400 l457 0 0 -420 0 -420 -715 0 -715 0 0 85 c0 84 0 85 25 85 24 0 25
-3 25 -60 l0 -60 665 0 665 0 0 370 0 370 -277 0 c-153 0 -565 3 -915 7 l-638
6 0 -91 c0 -91 0 -92 -25 -92 -25 0 -25 0 -25 93 0 50 3 103 7 116 l6 24 501
-6 c276 -4 707 -7 959 -7z m-948 -240 c0 -16 -6 -26 -18 -28 -19 -4 -32 20
-23 44 9 25 41 13 41 -16z m365 -165 c0 -178 -1 -185 -20 -185 -15 0 -20 7
-20 27 l0 26 -24 -22 c-35 -33 -101 -38 -144 -11 -86 54 -80 199 9 246 38 19
101 14 128 -10 10 -9 21 -16 24 -16 4 0 7 29 7 65 0 58 2 65 20 65 19 0 20 -7
20 -185z m-1542 148 c-2 -14 -15 -19 -51 -21 l-47 -3 0 -155 c0 -147 -1 -154
-20 -154 -19 0 -20 7 -20 154 l0 155 -47 3 c-36 2 -49 7 -51 21 -3 15 8 17
118 17 110 0 121 -2 118 -17z m263 -68 c38 -20 69 -70 69 -112 l0 -33 -110 0
c-100 0 -109 -2 -103 -17 22 -65 99 -85 143 -38 25 27 60 34 60 12 0 -31 -72
-77 -120 -77 -75 0 -130 61 -130 144 0 105 100 168 191 121z m336 -4 c31 -19
31 -19 36 0 3 11 14 19 26 19 21 0 21 -4 21 -205 l0 -205 -25 0 c-24 0 -24 2
-27 87 -3 82 -4 86 -20 69 -44 -44 -147 -24 -182 36 -24 39 -24 117 0 157 34
58 112 77 171 42z m368 5 c69 -29 98 -133 56 -202 -53 -87 -198 -80 -237 11
-53 129 56 243 181 191z m215 -126 l0 -140 -25 0 -25 0 0 140 0 140 25 0 25 0
0 -140z m230 -195 c7 -9 9 -19 5 -23 -4 -4 -10 -1 -12 6 -6 17 -53 16 -53 -2
0 -8 14 -19 30 -25 35 -12 47 -35 30 -56 -16 -19 -64 -19 -80 0 -16 19 -5 34
12 17 17 -17 58 -15 58 2 0 8 -16 20 -35 26 -27 9 -35 17 -35 35 0 35 56 49
80 20z m131 5 c14 -8 19 -21 19 -53 0 -50 -13 -67 -51 -67 -34 0 -53 23 -53
65 0 56 37 80 85 55z m89 -45 c0 -52 1 -55 24 -55 14 0 28 -4 31 -10 4 -6 -10
-10 -34 -10 l-41 0 0 65 c0 37 4 65 10 65 6 0 10 -25 10 -55z m112 3 c3 -49 5
-53 28 -53 23 0 25 4 28 53 4 68 22 68 22 -1 0 -59 -12 -77 -50 -77 -38 0 -50
18 -50 77 0 69 18 69 22 1z m213 42 c-3 -5 -13 -10 -21 -10 -10 0 -14 -14 -14
-55 0 -30 -4 -55 -10 -55 -5 0 -10 25 -10 55 0 48 -3 55 -19 55 -11 0 -23 5
-26 10 -4 6 15 10 50 10 35 0 54 -4 50 -10z m65 -56 c0 -85 -21 -82 -27 4 -3
50 -1 62 12 62 12 0 15 -14 15 -66z m134 44 c44 -63 -26 -145 -78 -92 -9 8
-16 31 -16 49 0 61 62 89 94 43z m111 -26 l30 -47 3 48 c5 71 22 57 22 -18 0
-80 -14 -84 -56 -18 l-29 47 -3 -47 c-5 -71 -22 -56 -22 18 0 80 13 84 55 17z
m169 42 c17 -7 22 -34 6 -34 -5 0 -10 5 -10 10 0 6 -12 10 -26 10 -41 0 -23
-28 29 -44 25 -8 19 -59 -6 -64 -30 -6 -67 7 -67 23 0 8 5 15 10 15 6 0 10 -4
10 -10 0 -5 11 -10 25 -10 35 0 32 26 -5 39 -35 12 -47 35 -30 56 13 16 38 19
64 9z"/>
<path d="M1696 715 c-45 -48 -37 -134 14 -160 57 -29 106 -12 130 44 40 97
-76 190 -144 116z"/>
<path d="M496 719 c-14 -11 -26 -29 -26 -40 0 -17 8 -19 80 -19 72 0 80 2 80
19 0 26 -46 61 -80 61 -15 0 -39 -9 -54 -21z"/>
<path d="M829 711 c-29 -29 -31 -36 -26 -79 9 -85 84 -119 146 -66 27 22 31
32 31 74 0 62 -22 89 -77 97 -38 5 -45 2 -74 -26z"/>
<path d="M1195 715 c-36 -35 -36 -115 0 -150 26 -27 72 -33 107 -14 29 15 50
73 42 115 -13 70 -100 99 -149 49z"/>
<path d="M1832 398 c3 -38 6 -43 28 -43 23 0 25 4 25 40 0 36 -3 40 -28 43
-27 3 -28 2 -25 -40z"/>
<path d="M2434 416 c-9 -38 4 -66 31 -66 27 0 40 28 31 66 -9 34 -53 34 -62 0z"/>
</g>
</svg>
